<?xml version="1.0" standalone="no"?>
<svg viewBox="-350 -150 1500 1500" style="width: 390px; height: 390px; justify-content: center; align-self: center; transform: scale(1, 1);" xmlns="http://www.w3.org/2000/svg" width="240" height="240"><rect x="-350" y="-150" width="100%" height="100%" fill="none" rx="30"></rect><g transform="rotate(0 421.6919822692871 621.7144317626953)"><g id="body_Tee_2" data-name="body/Tee 2" transform="translate(0 459)"><path id="_Skin" data-name="âœ‹ Skin" d="M9,748.678,0,567.066,10,389.888l716.472,56.879.751,4.868c5.975,38.911,10.534,72.027,13.553,98.428s4.579,46.825,4.64,60.712l0,.854a205.936,205.936,0,0,0,1.592,23.813c1.057,8.916,2.664,18.989,4.778,29.938,4.227,21.9,10.656,48.226,19.11,78.253l1.05,3.714ZM397.677,345.17c-62.268,0-135.087-.639-216.433-1.9,1.109-35.439,3.124-67.11,5.988-94.136,1.432-13.515,3.108-26.156,4.979-37.57s3.992-21.924,6.3-31.237a218.05,218.05,0,0,1,7.627-24.9,108.162,108.162,0,0,1,8.95-18.572,50.578,50.578,0,0,1,10.274-12.24,27.619,27.619,0,0,1,11.6-5.907l2.918-.645c12.307-2.688,23.395-4.712,33.176-6.5,28.034-5.117,46.552-8.5,58.481-20.81a53.47,53.47,0,0,0,7.956-10.726,84.148,84.148,0,0,0,5.8-12.552c3.3-8.811,5.616-18.361,7.859-27.6l0-.006c1.52-6.258,2.955-12.168,4.657-17.779.854-2.817,3.4-5.616,7.561-8.319a67.142,67.142,0,0,1,15.717-7.053,135.347,135.347,0,0,1,21.293-4.89A163.084,163.084,0,0,1,426.668,0c2.519,0,5.043.062,7.5.183A132.03,132.03,0,0,1,455.635,3.09a134.217,134.217,0,0,1,18.989,5.593,74.638,74.638,0,0,1,13.952,6.82c3.6,2.367,5.8,4.645,6.354,6.588,1.044,3.676,2.2,9.741,3.664,17.42,2.755,14.455,6.527,34.252,12.241,51.5,3.118,9.41,6.536,17.166,10.158,23.052A45.9,45.9,0,0,0,527.4,122.4a24.456,24.456,0,0,0,7.412,5.258c9.948,4.354,23.955,5.6,38.785,6.91,12.355,1.095,25.13,2.227,36.069,5.273a54.762,54.762,0,0,1,14.774,6.242,34.04,34.04,0,0,1,5.852,4.64,29.048,29.048,0,0,1,4.554,5.888c4.077,6.983,10.562,19.5,17.791,34.339,7.814,16.041,16.069,33.909,23.244,50.312,8.484,19.4,15.276,36.235,20.188,50.05,5.72,16.09,8.62,27.378,8.62,33.551,0,1.684-1.614,3.286-4.8,4.76a67.873,67.873,0,0,1-14.393,4.125c-12.734,2.527-32.1,4.662-57.57,6.347s-57.744,2.966-95.942,3.808S448.6,345.17,397.677,345.17Z" transform="translate(38 -39)" fill="#d08b5b"></path><path id="_Ink" data-name="ðŸ– Ink" d="M163.386,736.337a5.056,5.056,0,0,1-4.239-2.41,43.035,43.035,0,0,1-5.816-14.449,128.28,128.28,0,0,1-2.378-15.845l-.366-3.685c-1.279-12.77-2.231-24.032-2.91-34.43-1.354-20.726-2.249-41.281-2.66-61.095-.429-20.69-.345-41.265.249-61.155.663-22.208,2.794-43.87,4.791-62.131.788-7.168,1.524-13.487,2.25-19.319l.014-2.287c0-.59,0-1.359-.024-2.083l-.2-6.2c-.158-4.934-.318-10.2-.383-15.521l-.027-3.105-.031-5.78a71.779,71.779,0,0,1-9.559-1.815c-1.742-.413-3.384-.8-4.91-1.085-6.656-1.243-13.61-2.639-20.67-4.15-13-2.8-26.378-6.176-40.89-10.33l-2.876-.826c-12.139-3.5-24.99-7.367-36.925-12.8a68.452,68.452,0,0,1-13.279-7.609c-.113,1.538-.256,3.091-.393,4.592-.157,1.709-.319,3.476-.436,5.208-.207,3.031-.436,6.11-.658,9.086l0,.052c-.247,3.311-.5,6.734-.729,10.132l-.411,6.118c-.643,9.712-1.277,20.141-1.559,30.6-1.432,52.371-1.136,94.938.931,133.96,1.26,24.029,2.977,45.892,5.25,66.84,1.062,9.837,2.364,21.423,3.97,32.78.621,4.369,1.451,8.8,2.253,13.088a194.74,194.74,0,0,1,3.086,20.492,8,8,0,0,1-2.015,6.229,9.755,9.755,0,0,1-7.2,2.9,10.46,10.46,0,0,1-5.689-1.63,8.6,8.6,0,0,1-3.607-4.994c-2.373-8.654-3.475-17.907-4.541-26.855-.4-3.352-.812-6.817-1.284-10.176l-.2-1.359c-1.741-11.873-3.3-24.689-4.76-39.181C2.278,623.533.838,600.7.276,578.246c-.567-22.662-.254-45.536.931-67.989.986-18.843,3.239-39.435,7.091-64.8l.379-2.478c.358-2.32.715-4.673,1.061-6.948,1.09-7.172,2.217-14.589,3.494-21.863l.644-3.589c.38-2.069.744-4.22,1.1-6.3A162.372,162.372,0,0,1,19,385.167l-.728-.671a26.705,26.705,0,0,1-3.911-4.318,7.771,7.771,0,0,1-4.764-2.372,7.276,7.276,0,0,1-1.7-5.618,120.325,120.325,0,0,1,4.328-22.663c2.1-7.511,4.662-14.929,7.143-22.1l.116-.336q.328-.948.653-1.889a434.693,434.693,0,0,1,18.03-44.24A413.714,413.714,0,0,1,81.714,209.1a406.365,406.365,0,0,1,57.242-61.51,362.684,362.684,0,0,1,35.281-27.29c6.283-4.235,12.659-8.188,18.951-11.75,6.576-3.723,13.264-7.135,19.878-10.14a171.454,171.454,0,0,1,41.719-13.34,150.013,150.013,0,0,1,21.73-2.451,14.231,14.231,0,0,1,7.336-1.979,20.67,20.67,0,0,1,11.353,3.788l.311.212h.011l1.469.29a.339.339,0,0,1,.266.346.361.361,0,0,1-.266.374.19.19,0,0,0-.07.02,27.519,27.519,0,0,1,2.66,2.38,7.467,7.467,0,0,1,2.216,4.481,7.858,7.858,0,0,1-.9,4.429,66.9,66.9,0,0,1,10.263,12.417c2.96,4.489,5.633,9.348,8.219,14.048l.037.067.72,1.308a96.71,96.71,0,0,0,10.287,15.075,99.26,99.26,0,0,0,12.933,12.885A141.192,141.192,0,0,0,363.8,166.822,150.328,150.328,0,0,0,410.955,183.9a140.823,140.823,0,0,0,24.991,2.275,123.269,123.269,0,0,0,36.82-5.463,100.312,100.312,0,0,0,22.9-10.52A104.33,104.33,0,0,0,515.4,154.358a98.337,98.337,0,0,0,15.148-20.074,86.962,86.962,0,0,0,9.144-23.227,8.776,8.776,0,0,1-2.96.53,7.7,7.7,0,0,1-2.61-.45,18.271,18.271,0,0,1-9.086-7.571,63.6,63.6,0,0,1-5.4-11.04c-.246-.6-.5-1.209-.75-1.809l-.16-.381a177.09,177.09,0,0,1-8.08-23.44,129.156,129.156,0,0,1-3.96-25.01,87.66,87.66,0,0,1,.057-9.916l.151-2.733q.01-.222.02-.445l0-.055c.1-2.27.2-4.617,2.14-6.14a.347.347,0,0,1,.211-.083.286.286,0,0,1,.129.033c2.01.965,2.618,2.811,3.261,4.766l.009.026c.081.244.164.5.25.748.725,2.11,1.536,4.224,2.321,6.268l0,.01c.448,1.165.91,2.37,1.355,3.572.473,1.284.942,2.569,1.463,4l0,.01c1.884,5.161,3.832,10.5,5.994,15.674,2.261,5.433,5.323,12.58,8.96,19.689,1.7,3.337,3.5,6.533,5.04,9.22.407.715.8,1.51,1.214,2.351l0,.006h0a25.91,25.91,0,0,0,2.684,4.633,12,12,0,0,1,.49-1.79,5.95,5.95,0,0,0-.6.329.426.426,0,0,1-.228.067.491.491,0,0,1-.416-.258.433.433,0,0,1,0-.449,7.872,7.872,0,0,1,3.26-3.029c.313-.348,1.217-.525,2.684-.525,3.6,0,10.541,1.092,19.04,2.995,9.123,2.043,19.5,4.894,29.222,8.026,14.546,4.687,40.638,14.219,51.954,25.393a299.479,299.479,0,0,1,26.677,30.21,326,326,0,0,1,22.309,33.029A366.262,366.262,0,0,1,714.634,222.8c5.314,11.752,10.224,24.193,14.593,36.977,6.8,19.885,13.32,40.24,19.626,59.926l.022.069c2.468,7.7,5.02,15.67,7.552,23.495,4.9,15.166,10,30.533,14.924,45.394l.022.066c4.637,13.99,9.432,28.457,14.054,42.71a10.224,10.224,0,0,1,.406,4.693,10.841,10.841,0,0,1-1.577,4.175,14.282,14.282,0,0,1-7.059,5.613c-11,4.061-21.918,7.809-32.44,11.14a490.62,490.62,0,0,1,11.651,61.85c2.067,16.145,3.476,32.689,4.84,48.688v.007c1.13,13.254,2.3,26.96,3.834,40.38,1.723,15.056,3.737,28.144,6.157,40.015,2.117,10.383,4.8,20.446,7.154,28.921l.615,2.209c.35,1.244.705,2.536,1.019,3.676l0,.008c1.191,4.33,2.424,8.807,3.939,13.107.526,1.489,1.111,3.009,1.676,4.478a80.154,80.154,0,0,1,3.325,9.9,14.688,14.688,0,0,1-.483,8.526,12.119,12.119,0,0,1-5.537,6.434,10.392,10.392,0,0,1-5,1.252,10.2,10.2,0,0,1-4.612-1.074,8.413,8.413,0,0,1-3.47-3.238,7.709,7.709,0,0,1-.98-2.9c-.406-.865-.765-1.723-1.069-2.551-.109-.29-.216-.618-.34-1.031l-.311-1.039c-.764-2.494-1.474-5.029-2.16-7.48-1.147-4.037-2.281-7.991-3.555-11.983l-.644-1.986c-3.18-9.682-6.007-19.425-8.4-28.96-1.948-7.773-3.6-15.767-5.064-24.439-1.3-7.724-2.413-15.809-3.4-24.716-1.837-16.542-2.951-33.441-4.028-49.784v-.021c-.176-2.667-.358-5.425-.539-8.135l-.125-1.854c-1.307-19.272-1.993-34.127-2.224-48.167-.288-17.495.175-33.233,1.414-48.113l-.365.119-.365.111c-3.7,1.132-7.117,2.149-10.44,3.11l-.076.028c-.083.031-.16.059-.244.082-2.26.7-4.57,1.36-6.864,1.959l-1.4.361-.99.27-1.042.3-.918.269a31.483,31.483,0,0,1-8.715,1.693c-.159,0-.319,0-.474-.008a111.542,111.542,0,0,1-17.141,1.48c1.874,30.637,3.9,58.689,6.18,85.76,2.525,29.958,5.949,60.053,8.959,85.91,1.765,15.2,3.512,29.04,5.341,42.31,1.093,7.964,2.073,14.638,3.3,21.32.267,1.443.582,2.936.886,4.381,1.249,5.931,2.54,12.059,1.395,17.919a.28.28,0,0,0-.09-.021,8.2,8.2,0,0,1-3.991,5.331,8.716,8.716,0,0,1-4.4,1.164,9.333,9.333,0,0,1-4.451-1.126,8.354,8.354,0,0,1-3.31-3.228c-.2-.348-.391-.712-.57-1.08a20.9,20.9,0,0,1-8.29,1.46l-43.94.44c-18.156.182-39.256.4-59.92.7-19.965.294-40.108.605-59.588.906h-.024c-42.141.651-85.717,1.325-128.574,1.844l-23.523.27c-11.527.121-23.25.283-34.587.439h-.079c-23.1.319-46.995.649-70.483.649h-.712c-19.692,0-36.229-.083-52.93-.491-8.075-.2-16.082-.5-25.619-.89l-1.508-.068c-.775-.038-1.569-.081-2.336-.122-2.712-.146-5.516-.3-8.284-.3a44.657,44.657,0,0,0-10.1.979A5.424,5.424,0,0,1,163.386,736.337ZM321.4,96.612a8.427,8.427,0,0,1-6.129-2.919,12.661,12.661,0,0,1-3.13-6.526,9.366,9.366,0,0,1,.868-5.893,8.406,8.406,0,0,1,5.136-4.018,70.38,70.38,0,0,0,18.332-13.781,97.31,97.31,0,0,0,13.907-18.288,132.356,132.356,0,0,0,10.621-21.85c1.291-3.5,2.361-7.134,3.4-10.643l0-.006c1.208-4.1,2.457-8.331,4.062-12.381A.509.509,0,0,1,368.917,0a.347.347,0,0,1,.32.207,38.833,38.833,0,0,1,3.525,12.736,58.09,58.09,0,0,1-.245,13.762,87.845,87.845,0,0,1-7.881,25.952,91.78,91.78,0,0,1-14.011,21.033,126.528,126.528,0,0,1-18.468,16.976c-1.8,1.375-3.721,2.784-5.71,4.189A8.713,8.713,0,0,1,321.4,96.612Z" transform="translate(27 -16.908)"></path></g><g transform="translate(225 0)"><g><g><path id="_Skin" data-name="âœ‹ Skin" d="M355.263,99.319c11.378-8.172-5.588-35.059-11.352-43.059q-7.521-15.654-15.043-31.31c.61-8.559-7.748-16.174-16.007-13.57-7.185-5.153-19.219-2.686-22.871,5.382C210.543-17.84,73.077-3.445,65.968,103.327c-15.368,30.4-30.6,61.06-44.235,92.281-18.918,1.016-28.088,24-16.825,38.852,1.5,24.119,16.79,26.028,37.2,24.955,8.2,2.159,16.7,3.329,22.844,9.66,4.673,4.775,7.849,10.83,10.914,16.7,14.145,27.106,32.116,50.554,56.476,69.3,37.883,28.351,89.165,48.706,136.4,34.9,101.557-39.882,121.5-199.268,86.514-290.671Z" transform="translate(50 126)" fill="#d08b5b"></path><path id="_Ink" data-name="ðŸ– Ink" d="M252.2,456.6c-2.719,0-5.479-.1-8.2-.288a170.351,170.351,0,0,1-28.991-4.569l-2.282-.567c-8.6-2.154-17.618-4.672-25.018-9.634a8.2,8.2,0,0,1-3.294-4.005,6.941,6.941,0,0,1-.093-4.412,7.951,7.951,0,0,1,2.827-3.995,8.354,8.354,0,0,1,5.067-1.661,9.548,9.548,0,0,1,1.385.1,114.739,114.739,0,0,1,16.958,4.327c4.135,1.283,8.411,2.609,12.692,3.543,4.469.979,8.91,1.728,13.2,2.226a116.06,116.06,0,0,0,13.344.789c1.042,0,2.094-.015,3.127-.045a89.233,89.233,0,0,0,25.391-4.393A93.748,93.748,0,0,0,301.4,422.593a114.616,114.616,0,0,0,18.77-15.858,123.1,123.1,0,0,0,14.674-18.82,147.661,147.661,0,0,0,11.091-21.164,189.445,189.445,0,0,0,8.022-22.889,287.712,287.712,0,0,0,8.893-48.479c1.9-18.094,2.5-36.037,2.781-47.959.4-16.981.143-31.736-.791-45.109a277.407,277.407,0,0,0-6.5-44.591,259.188,259.188,0,0,0-13.525-41.541,230.02,230.02,0,0,0-20.665-38.459,42.557,42.557,0,0,1-10.91,2.79,28.406,28.406,0,0,1-10.9,3.607,84.5,84.5,0,0,1-11.7.562H289.55c-7.39-.009-15.355-.408-24.35-1.22-7.626-.676-15.457-1.648-23.029-2.587-14.366-1.782-29.22-3.625-43.8-3.625a140.962,140.962,0,0,0-20.042,1.332l-1.175.171c-16.383,2.465-28.238,7.192-35.235,14.049-4.344,4.251-4.939,9.815-4.673,13.735a28.585,28.585,0,0,0,3.027,10.78,21.737,21.737,0,0,0,5.987,7.625,10.415,10.415,0,0,1,4.161,8.826,7.269,7.269,0,0,1-1.146,3.418,7.768,7.768,0,0,1-3.015,2.646c-7.093,3.661-19.951,4.081-30.283,4.42-7.971.261-14.267.467-15.728,2-3.717,3.888-3.8,9.69-3.877,14.81v.008c-.007.477-.014.97-.024,1.446l-.008.366a425.112,425.112,0,0,0,1.3,47.07c.535,6.337,1.369,12.787,2.176,19.025v.008c1.123,8.688,2.285,17.672,2.663,26.516a4.684,4.684,0,0,1-1.247,3.541,5.546,5.546,0,0,1-4.019,1.6,6.055,6.055,0,0,1-3.874-1.356c-.663-.55-1.333-1.058-1.991-1.509-6.471-4.588-13.827-6.214-20.17-7.2a1.475,1.475,0,0,1-.9-.508l-.088-.112-.779.64a27.645,27.645,0,0,1,3.849,6.43.655.655,0,0,1-.054.615.5.5,0,0,1-.422.244.567.567,0,0,1-.294-.089A46.88,46.88,0,0,0,48.4,250.726a42.9,42.9,0,0,0-8.761.917,33.98,33.98,0,0,0-14.323,6.579,26.945,26.945,0,0,0-5.328,5.694,24.907,24.907,0,0,0-3.429,7.237,33.062,33.062,0,0,0-.642,15.248,32.331,32.331,0,0,0,6.243,13.943,25.051,25.051,0,0,0,7.034,6.195,30.428,30.428,0,0,0,8.278,3.3c5.825,1.453,12.188,1.622,18.341,1.785,1.537.041,3.127.083,4.666.145,2.345.1,5.565,1.193,6.92,3.97,1.423,2.922,1.423,4.964,0,8.09a5,5,0,0,1-.73,1.169c1,.828,2.026,1.778,3.323,3.077l3.571,3.6c2.184,2.2,4.749,4.821,7.216,7.506a302.521,302.521,0,0,1,19.44,23.63l.563.76c1.266,1.732,2.519,3.569,3.846,5.514,6.037,8.851,12.88,18.882,23.052,21.415,5.285,1.322,8.373,3.853,9.44,7.74a8.441,8.441,0,0,1-.881,6.481,11.056,11.056,0,0,1-4.818,4.479,13.082,13.082,0,0,1-5.721,1.243,21.806,21.806,0,0,1-8.356-1.873,36.27,36.27,0,0,1-7.333-4.2A68.772,68.772,0,0,1,95.176,388.7c-4.271-5.964-7.979-12.38-11.565-18.586l-.018-.03q-.758-1.311-1.507-2.6l-2.071-3.56c-3.728-6.432-7.634-13.377-10.947-20.584-.612-1.332-1.248-2.682-1.864-3.986-1.251-2.652-2.544-5.394-3.7-8.133-.536-1.276-1.01-2.431-1.39-3.641a10.785,10.785,0,0,1-1.641.23c-2.23.146-4.457.22-6.618.22a74.085,74.085,0,0,1-22.067-3.064,43.294,43.294,0,0,1-18.764-11.227,45.049,45.049,0,0,1-5.86-7.681,48.87,48.87,0,0,1-4.178-8.758A50.291,50.291,0,0,1,.045,278.207a43.686,43.686,0,0,1,3.607-15.813A38.066,38.066,0,0,1,13.34,249.1a36.047,36.047,0,0,1,6.59-4.58,72.5,72.5,0,0,1-7.18-18.35,146.7,146.7,0,0,1-4.37-27.39,167.387,167.387,0,0,1,.508-28.437A201.216,201.216,0,0,1,13.8,142.313,196.337,196.337,0,0,1,32.267,95,190.686,190.686,0,0,1,61.912,54.592,179.5,179.5,0,0,1,101.13,23.711,170.931,170.931,0,0,1,148.319,4.993,194.928,194.928,0,0,1,192.357,0,202.766,202.766,0,0,1,232.13,3.957a200.4,200.4,0,0,1,38.173,11.7,189.8,189.8,0,0,1,34.926,19.173,176.562,176.562,0,0,1,30.03,26.389,8.383,8.383,0,0,1,2.3,5.84,8.141,8.141,0,0,1-2.264,5.42c1.016.825,2.029,1.68,3.008,2.506l.124.1.818.689a2.848,2.848,0,0,1,.958,2.09,3.6,3.6,0,0,1-.958,2.621,3.637,3.637,0,0,1-2.5.969,2.724,2.724,0,0,1-2.209-.969L332.9,78.415c-.73-.922-1.586-2.014-2.407-3.132-.7.258-1.391.527-2.059.788l-.752.292a106.681,106.681,0,0,1,19.182,16.26,99.3,99.3,0,0,1,14.659,20.46c8.09,15.036,13.932,31.846,17.86,51.39a344.241,344.241,0,0,1,5.99,48.535c.833,14.592,1,30.6.518,48.94l-.048,1.745c-.311,10.988-.8,20.639-1.5,29.5-.834,10.588-1.965,20.182-3.457,29.33-3.476,21.3-8.887,39.77-16.544,56.465a150.535,150.535,0,0,1-11.828,21.087A146.226,146.226,0,0,1,337.221,419.2a130.256,130.256,0,0,1-18.35,16.074,111.029,111.029,0,0,1-21,11.935A115.79,115.79,0,0,1,252.2,456.6ZM70.16,291.318a7.224,7.224,0,0,1-3.386-.919l-.285-.157A107.845,107.845,0,0,0,55.728,285.1c-1.692-.733-3.441-1.491-5.138-2.276l-1.13-.531c-.553-.265-1.273-.652-2.106-1.1-3.46-1.859-8.688-4.667-12.6-4.667a4.921,4.921,0,0,0-3.2.989,5.36,5.36,0,0,0-1.72,3.467.5.5,0,0,1-.533.4.519.519,0,0,1-.547-.4c-.494-2.865-.058-5.133,1.3-6.74a8.055,8.055,0,0,1,4-2.4,20.924,20.924,0,0,1,5.8-.7c7.736,0,17.649,2.626,24.888,4.544,3.042.806,5.443,1.442,6.931,1.68l.242.036c3.966.551,5.175,3.705,4.984,6.474a9.086,9.086,0,0,1-2.016,5.086A6.132,6.132,0,0,1,70.16,291.318Z" transform="translate(45 65)"></path></g></g><g transform="translate(159 186)"><g><path d="M175.373 49.5872C175.699 49.4437 175.991 49.2049 176.203 48.8583C178.978 44.3099 179.267 38.8813 178.039 33.5637C176.563 27.172 172.899 20.9588 168.944 16.7559C163.959 11.4582 157.895 7.75374 151.246 4.94731C150.762 4.74287 150.267 4.53098 149.763 4.31514C142.964 1.40541 134.597 -2.01031 127.865 1.47064C125.161 2.86951 123.673 5.20381 123.256 7.7496C122.814 10.4534 123.597 13.4099 125.462 15.7216C128.557 19.5594 133.339 20.3533 138.087 21.0465C139.602 21.2677 141.106 21.486 142.53 21.8229C147.429 22.9821 152.604 24.4361 157.104 26.7244C166.253 31.3762 170.54 38.5898 172.747 48.2853C172.837 48.6781 173.037 48.9988 173.3 49.2406C173.575 49.4928 173.921 49.6579 174.285 49.7192C174.651 49.7808 175.032 49.7375 175.373 49.5872ZM58.3942 19.1934C55.0693 22.4329 51.1339 22.9347 47.1526 23.381C44.9405 23.6313 43.1746 23.8331 41.4369 24.2252C36.6605 25.3034 31.9393 26.9272 27.6319 29.2659C23.1292 31.7106 18.2224 34.659 14.6922 38.4361C13.8528 39.3349 13.0615 40.278 12.2691 41.2232C11.5465 42.0851 10.8505 42.9149 10.1169 43.7149C9.27449 44.6339 8.47449 45.597 7.67875 46.5576C7.1867 47.3681 7.0895 47.5675 6.99041 47.775C6.8413 48.0869 6.66786 48.4359 6.46976 48.8103C6.19845 49.323 5.88066 49.8843 5.54784 50.3932C4.9941 51.3234 4.69697 51.5796 4.44022 51.6942C4.01419 51.8839 3.61015 51.9774 3.21817 51.9268C2.85064 51.8793 2.50438 51.7028 2.16244 51.4138C0.455387 49.9715 -0.0480658 47.6046 0.00353523 45.092C0.0818393 41.2793 1.48813 37.0578 2.78452 34.4628C5.79888 28.4331 9.97938 22.1649 15.0062 17.6646C20.7422 12.5276 27.0177 8.63869 34.2256 5.95894C38.705 4.29304 43.8913 2.76391 48.7713 2.95706C52.284 3.09609 55.6373 4.14026 58.4066 6.74782C60.1072 8.34853 60.9235 10.6254 60.9235 12.9006C60.9235 15.2211 60.0757 17.5554 58.3942 19.1934ZM164.634 78.3299C166.478 78.8824 167.779 78.6212 169.441 77.7551C170.719 77.0896 171.589 76.0387 172.088 74.8117C172.599 73.5559 172.706 72.1077 172.454 70.7659C171.405 65.1948 168.042 60.2513 163.503 57.0672C159.091 53.9728 153.589 52.5435 148.048 53.7341C144.003 54.6036 138.007 58.4424 134.85 63.1243C133.504 65.1203 132.671 67.2595 132.581 69.3723C132.495 71.387 133.008 73.4183 135.676 76.096C135.935 76.177 136.208 76.2208 136.477 76.2208C137.138 76.2208 137.821 75.9439 138.274 75.5441C139.469 74.4935 140.311 73.1636 141.178 71.7329C141.641 70.9679 142.102 70.1976 142.69 69.5195C144.449 67.4927 147.002 65.7736 149.683 65.3262C152.167 64.911 154.406 65.6469 156.181 67.0355C158.256 68.6601 159.713 71.1522 160.252 73.8146C160.472 74.8933 161.036 75.8657 161.818 76.6477C162.607 77.4367 163.615 78.0237 164.634 78.3299ZM46.1749 69.1109C43.7479 67.5587 40.8928 67.0259 37.7287 68.4655C35.256 69.5899 30.9192 73.3385 27.9011 78.2662C25.8363 81.6374 24.3721 85.5922 24.6769 89.7117C24.7477 90.6684 24.3942 91.3738 23.8366 91.8954C23.3962 92.3073 22.7601 92.61 22.013 92.7047C21.3786 92.785 20.6686 92.7125 20.0913 92.5324C18.9931 92.1896 18.4119 91.4772 18.1929 90.8957C16.0797 85.2836 16.9901 79.0208 19.3585 73.3707C22.5547 65.7456 28.3592 59.3585 32.1622 57.2993C38.6698 53.7742 46.347 53.612 52.8639 57.2031C58.4114 60.2596 61.8802 65.1942 65.3301 70.2242C66.0635 71.2934 66.7914 72.3548 67.5436 73.3976C69.0513 75.487 69.2013 77.5593 68.6175 79.3363C67.9707 81.3049 66.3215 82.9663 64.2592 83.8357C62.353 84.6393 60.1407 84.7524 58.1831 83.9268C56.5293 83.2293 55.0117 81.8695 54.0513 79.5625C52.434 75.6771 49.7393 71.3904 46.1749 69.1109Z" transform="translate(54.00004 55.05923)" fill="#000000" fill-rule="evenodd" stroke="none"></path></g></g><g transform="translate(123 338)"><g><path d="M276.67 82.0231C278.737 79.5551 285.109 75.4151 286.653 74.1321C289.701 71.6021 295.493 72.9491 295.189 77.6681L293.255 107.666C293.056 110.762 290.518 130.65 289.843 135.839C287.206 156.112 281.179 175.773 268.552 191.974C261.502 201.014 252.892 207.844 243.322 212.814C236.572 217.734 229.132 221.684 221.262 224.514C205.252 230.274 187.822 230.094 171.242 227.184C156.182 224.544 141.182 219.524 127.172 213.174C111.042 208.294 95.3216 202.064 80.3216 195.054C64.5716 187.694 47.6116 179.464 35.1316 167.074C23.1416 155.184 16.8616 139.054 12.8816 122.944C12.2716 120.484 11.7016 118.004 11.1716 115.514C10.6516 114.194 10.2216 112.774 9.88161 111.184C8.79161 106.134 7.80161 101.064 6.91161 95.9841C5.14161 85.9341 3.72161 75.8141 2.65161 65.6641C1.57161 55.3941 0.891612 45.0841 0.591612 34.7641C0.54156 33.006 0.435836 31.1613 0.327412 29.2696C-0.0840528 22.0905 -0.534392 14.2331 1.87161 7.85407C3.66161 3.11407 7.66161 0.104072 11.9916 0.00407165C14.3816 -0.0659284 16.8816 0.764072 19.1616 2.69407C24.6516 7.33407 47.3816 60.2241 56.0016 71.9741C64.8316 84.0041 74.8116 95.2941 85.8616 105.294C86.0516 105.404 86.2416 105.524 86.4216 105.644C101.412 101.864 114.892 94.4641 125.852 82.8841C135.512 72.6741 143.392 60.8341 154.822 52.4041C160.422 48.2741 166.902 45.3441 173.822 44.3941C178.977 43.691 184.101 44.1701 189.228 44.6497C193.509 45.0501 197.793 45.4507 202.102 45.1641C203.708 45.0594 205.295 44.9163 206.868 44.7745C214.012 44.1306 220.86 43.5134 227.802 46.6441C234.992 49.8741 240.502 55.7041 245.882 61.2741C253.452 69.1271 261.935 75.3901 271.464 79.8221C272.829 79.7921 274.168 80.2821 275.077 81.3981C275.605 81.6121 276.136 81.8201 276.67 82.0231ZM238.77 124.972C242.214 126.253 245.642 127.582 249.132 128.724C251.352 129.444 253.632 130.134 255.932 130.624C260.962 125.204 264.642 118.694 267.552 111.724C263.042 111.484 258.412 109.854 254.552 108.194C247.092 104.974 240.342 100.194 232.672 97.4641C216.512 91.7141 199.052 94.2441 182.962 98.8741C165.682 103.834 149.342 111.574 132.002 116.324C126.355 117.876 120.113 119.38 113.738 120.285C114.786 121.52 115.761 122.806 116.701 124.129C125.511 129.063 134.585 133.548 144.232 137.184C145.572 137.684 146.922 138.184 148.272 138.654C150.474 138.04 152.652 137.308 154.812 136.502C163.907 132.197 172.359 125.628 181.423 121.972C199.89 114.523 221.161 116.127 238.77 124.972Z" transform="translate(-0.9999123 -17.00057)" fill="#000000" fill-rule="evenodd" stroke="none"></path></g></g><g transform="translate(47 241)"></g></g></g></svg>